<svg xmlns="http://www.w3.org/2000/svg" width="273" height="130" viewBox="0 0 273 130">
    <g fill="none" fill-rule="evenodd">
        <g transform="rotate(-56 185.399 -131.169)">
            <rect width="12.63" height="10.75" x="63.152" y="25.083" fill="#0285CA" rx="3.6"/>
            <path stroke="#303E64" stroke-linecap="round" stroke-width="3.6" d="M83 10.75v21.5C83 38.187 78.153 43 72.174 43H3.609C1.616 43 0 41.396 0 39.417V30.21h40.377M0 17.162V3.583C0 1.604 1.616 0 3.609 0h74.466"/>
        </g>
        <g stroke-linecap="round" stroke-width="3.6">
            <path stroke="#303E64" d="M164 67.53v17.613C164 91.139 159.203 96 153.286 96H117.57C115.6 96 114 94.38 114 92.381V70.667c0-7.995 6.396-14.477 14.286-14.477h30.761M124.714 40.286v-9.429c0-5.996 4.797-10.857 10.715-10.857h7.142c5.918 0 10.715 4.86 10.715 10.857v7.238c0 5.996-4.797 10.857-10.715 10.857H132.25"/>
            <path stroke="#0285CA" d="M131.857 36.286c0 3.997 3.198 7.238 7.143 7.238s7.143-3.24 7.143-7.238"/>
        </g>
        <path fill="#0285CA" d="M41.79 78.617l.022.037c.884 1.792 2.574 1.766 4.737 1.169l-3.424-5.93c-1.282 1.34-2.088 3.157-1.335 4.724zm5.203-7.057l3.922 6.792c4.56-1.482 9.338-2.239 12.358 3.773 2.164 4.356.112 8.793-3.496 11.576l2.036 3.528-3.911 2.258-2.037-3.528c-3.575 1.364-7.904 1.162-11.526-1.55l2.898-3.926a7.201 7.201 0 0 0 6.158 1.198l-4.376-7.58c-4.454 1.32-8.822 2.09-11.533-3.3-2.314-4.267-.573-8.375 3.148-11.224l-1.994-3.452 3.912-2.258 1.993 3.452c3.554-1.401 7.845-1.177 11.424 1.46l-2.84 3.942c-1.991-1.452-4.286-1.779-6.136-1.161zm6.414 11.108l3.9 6.755c1.491-1.412 2.27-3.363 1.624-5.09-1.132-2.049-3.163-2.178-5.524-1.665z"/>
        <path stroke="#303E64" stroke-linecap="round" stroke-width="3.6" d="M67.374 47.45l5.507 9.539M80.105 69.5l8.936 15.478c2.992 5.182 1.207 11.813-3.986 14.81L47.79 121.305m-16.067-5.318l-4.945-8.565M20.28 96.168l-12.933-22.4a3.615 3.615 0 0 1 1.329-4.938l43.878-25.333M64.479 53.292l.181-7.494c.04-1.623 1.215-2.302 2.64-1.525l6.581 3.59M25.216 115.573l6.581 3.59c1.425.777 2.601.099 2.64-1.524l.182-7.495"/>
        <path fill-rule="nonzero" stroke="#0285CA" stroke-width="3" d="M216.53 24.096l-1.003 1.332a1.614 1.614 0 0 1-2.754-.289l-.703-1.512a2.409 2.409 0 0 0-1.402-1.263l-1.577-.54a1.614 1.614 0 0 1-.576-2.71l1.22-1.135c.48-.446.758-1.069.768-1.724l.028-1.667a1.614 1.614 0 0 1 2.398-1.385l1.457.81c.573.318 1.25.39 1.877.197l1.594-.489a1.614 1.614 0 0 1 2.058 1.853l-.32 1.636c-.126.643.016 1.31.392 1.846l.958 1.365a1.614 1.614 0 0 1-1.126 2.53l-1.656.201c-.65.08-1.24.42-1.634.944zM267.411 18.53l-.486 1.594a1.614 1.614 0 0 1-2.686.67l-1.178-1.18a2.409 2.409 0 0 0-1.75-.707l-1.667.03a1.614 1.614 0 0 1-1.467-2.347l.758-1.485a2.409 2.409 0 0 0 .132-1.883l-.545-1.576a1.614 1.614 0 0 1 1.78-2.121l1.647.263a2.409 2.409 0 0 0 1.83-.457l1.331-1.005a1.614 1.614 0 0 1 2.568 1.037l.259 1.648a2.409 2.409 0 0 0 1 1.6l1.367.955a1.614 1.614 0 0 1-.193 2.762l-1.487.755a2.409 2.409 0 0 0-1.213 1.446zM237.148 13.213l-1.824.702a1.786 1.786 0 0 1-2.414-1.886l.24-1.939a2.409 2.409 0 0 0-.52-1.814L231.4 6.76a1.786 1.786 0 0 1 1.047-2.878l1.918-.371a2.409 2.409 0 0 0 1.565-1.055l1.062-1.64a1.786 1.786 0 0 1 3.062.107l.945 1.71c.317.573.854.993 1.487 1.162l1.888.503a1.786 1.786 0 0 1 .844 2.945l-1.334 1.427a2.409 2.409 0 0 0-.645 1.774l.104 1.95a1.786 1.786 0 0 1-2.54 1.714l-1.77-.828a2.409 2.409 0 0 0-1.885-.066z"/>
    </g>
</svg>
