<svg xmlns="http://www.w3.org/2000/svg" width="20" height="15" viewBox="0 0 20 15">
    <path fill="#FFF" fill-rule="nonzero" d="M.088 7.127c.117-.234.337-.625.657-1.12.53-.822 1.156-1.642 1.876-2.41C4.718 1.36 7.183 0 10 0c2.817 0 5.282 1.36 7.379 3.597.72.768 1.346 1.588 1.876 2.41.32.495.54.886.657 1.12a.833.833 0 0 1 0 .746c-.117.234-.337.625-.657 1.12-.53.822-1.156 1.642-1.876 2.41C15.282 13.64 12.817 15 10 15c-2.817 0-5.282-1.36-7.379-3.597a17.077 17.077 0 0 1-1.876-2.41c-.32-.495-.54-.886-.657-1.12a.833.833 0 0 1 0-.746zm2.057.963a15.427 15.427 0 0 0 1.692 2.173c1.81 1.93 3.875 3.07 6.163 3.07 2.288 0 4.353-1.14 6.163-3.07A15.427 15.427 0 0 0 18.216 7.5a15.427 15.427 0 0 0-2.053-2.763c-1.81-1.93-3.875-3.07-6.163-3.07-2.288 0-4.353 1.14-6.163 3.07A15.427 15.427 0 0 0 1.784 7.5c.105.181.225.38.361.59zM10 10.833a3.333 3.333 0 1 1 0-6.666 3.333 3.333 0 0 1 0 6.666zm0-1.666a1.667 1.667 0 1 0 0-3.334 1.667 1.667 0 0 0 0 3.334z"/>
</svg>
